<?xml version="1.0" standalone="no"?>
<!DOCTYPE svg PUBLIC "-//W3C//DTD SVG 20010904//EN"
 "http://www.w3.org/TR/2001/REC-SVG-20010904/DTD/svg10.dtd">
<svg version="1.0" xmlns="http://www.w3.org/2000/svg"
 width="400.000000pt" height="400.000000pt" viewBox="0 0 400.000000 400.000000"
 preserveAspectRatio="xMidYMid meet">
<metadata>
Created by potrace 1.14, written by Peter Selinger 2001-2017
</metadata>
<g transform="translate(0.000000,400.000000) scale(0.100000,-0.100000)"
fill="#000000" stroke="none">
<path d="M3495 3277 c-35 -27 -151 -68 -170 -61 -7 3 -26 -3 -41 -13 -16 -10
-29 -17 -31 -16 -7 5 -63 -10 -63 -17 0 -9 -37 -17 -133 -30 -38 -5 -74 -13
-80 -18 -7 -5 -38 -9 -71 -10 -32 0 -71 -6 -87 -12 -23 -10 -31 -9 -44 4 -10
10 -33 16 -59 16 -58 0 -235 -46 -266 -69 -18 -13 -52 -20 -120 -25 -52 -4
-99 -12 -105 -16 -18 -15 -128 -29 -217 -28 -134 1 -420 -48 -603 -103 -138
-42 -349 -142 -480 -228 -116 -75 -111 -73 -195 -107 -24 -11 -59 -29 -76 -40
-17 -12 -46 -24 -65 -26 -50 -8 -170 -43 -199 -59 -14 -8 -41 -26 -61 -41 -20
-16 -40 -28 -46 -28 -5 0 -29 -19 -54 -42 -33 -33 -44 -51 -46 -76 -2 -57 -12
-80 -53 -122 -22 -22 -40 -50 -40 -61 0 -12 -6 -35 -14 -52 -14 -31 -38 -170
-37 -214 0 -13 -8 -27 -19 -33 -20 -11 -20 -23 -20 -880 l0 -870 2000 0 2000
0 0 1560 c0 1478 -1 1561 -17 1566 -10 3 -36 14 -58 24 -72 33 -100 43 -122
44 -22 2 -48 24 -69 61 -13 23 -90 45 -159 45 -37 0 -58 -6 -80 -23z m-787
-366 c-26 -17 -54 -43 -62 -60 -19 -36 -20 -45 -3 -35 6 4 4 -2 -5 -13 -10
-11 -18 -25 -18 -31 0 -7 -5 -12 -11 -12 -16 0 -3 87 17 118 15 23 85 61 113
62 8 0 -6 -13 -31 -29z m-73 -200 c3 -5 1 -12 -4 -15 -5 -3 -11 1 -15 9 -6 16
9 21 19 6z m60 -101 c5 -8 6 -38 4 -102 0 -11 -8 -18 -20 -18 -10 0 -18 -4
-16 -9 3 -11 -75 -80 -92 -81 -8 0 -11 -7 -8 -20 5 -20 -8 -29 -15 -10 -2 6
-13 2 -25 -10 -27 -25 -33 -26 -44 -8 -6 9 -9 6 -9 -12 0 -18 -3 -21 -9 -11
-6 8 -8 2 -7 -20 0 -19 -3 -34 -8 -34 -9 0 -21 -32 -32 -85 -3 -13 -10 -30
-16 -37 -6 -7 -8 -13 -4 -13 3 0 -4 -24 -15 -52 -27 -68 -29 -79 -36 -162 -5
-52 -8 -64 -16 -51 -15 28 1 168 27 238 13 34 29 87 36 117 7 30 26 79 42 108
26 46 40 58 106 92 119 61 137 80 137 140 0 47 7 61 20 40z m-94 -866 c-12
-27 -1 -31 43 -14 31 11 31 13 6 -50 -24 -61 -24 -58 -2 -56 10 0 16 -5 14
-14 -2 -8 -6 -31 -9 -50 -3 -19 -16 -47 -29 -61 -14 -14 -21 -28 -17 -32 3 -4
0 -7 -8 -7 -12 0 -11 -2 1 -11 11 -8 4 -9 -26 -5 -34 5 -43 3 -50 -12 -4 -9
-6 -20 -6 -24 1 -5 -3 -8 -8 -8 -14 0 -13 7 6 34 10 17 12 26 4 31 -6 4 -9 14
-6 23 2 10 7 47 11 85 5 51 13 75 32 97 19 23 24 40 23 72 -3 71 -2 75 16 49
13 -18 14 -28 5 -47z m173 -48 c-4 -31 -11 -56 -16 -56 -5 0 -7 14 -4 30 3 17
9 44 12 61 10 50 15 26 8 -35z m-60 -37 c-30 -84 -41 -73 -14 13 16 52 26 73
28 59 2 -12 -5 -45 -14 -72z m-67 -205 c-3 -3 -12 -4 -19 -1 -8 3 -5 6 6 6 11
1 17 -2 13 -5z m-154 -119 c-3 -9 -8 -14 -10 -11 -3 3 -2 9 2 15 9 16 15 13 8
-4z m-14 -74 c-7 -23 -14 -39 -16 -37 -3 2 1 23 8 45 7 23 14 39 16 37 3 -2
-1 -23 -8 -45z m-80 -761 c-4 -14 -7 20 -7 75 l1 100 7 -75 c3 -41 3 -86 -1
-100z m81 -210 c0 -4 -12 -12 -26 -18 -14 -7 -22 -17 -19 -22 7 -11 53 -3 73
13 7 6 12 6 12 0 0 -11 -44 -33 -65 -33 -8 0 -15 -4 -15 -10 0 -5 7 -7 16 -3
14 5 16 2 11 -19 -6 -22 -2 -28 23 -38 17 -7 30 -18 30 -25 0 -27 -74 -35 -84
-9 -9 25 -7 41 4 24 7 -10 10 -11 10 -2 0 7 -12 17 -26 22 -30 12 -58 12 -29
0 18 -7 17 -8 -10 -15 -16 -4 -35 -11 -40 -16 -6 -4 -17 -4 -25 1 -17 11 -4
59 20 70 46 21 57 30 77 60 13 18 20 36 17 41 -3 5 6 4 20 -3 14 -6 26 -14 26
-18z m1150 15 c7 -8 9 -15 4 -16 -5 -1 2 -5 16 -9 24 -8 23 -8 -7 -9 -18 -1
-33 3 -33 8 0 5 -3 16 -6 25 -8 20 10 21 26 1z m160 11 c0 -2 -11 -6 -25 -8
-14 -3 -25 -1 -25 3 0 5 11 9 25 9 14 0 25 -2 25 -4z m-1280 -26 c0 -5 -5 -10
-11 -10 -5 0 -7 5 -4 10 3 6 8 10 11 10 2 0 4 -4 4 -10z m755 -60 c3 -5 -1
-10 -9 -10 -9 0 -16 5 -16 10 0 6 4 10 9 10 6 0 13 -4 16 -10z m-50 -9 c-3 -2
3 -10 13 -17 9 -7 15 -15 12 -18 -3 -3 -18 5 -34 17 -25 20 -26 23 -7 23 11 0
18 -2 16 -5z m220 -11 c-5 -15 -2 -20 12 -20 17 -1 17 -1 1 -11 -12 -7 -24 -6
-38 1 -23 12 -27 25 -6 17 11 -4 13 -1 9 10 -4 11 -2 14 5 9 7 -4 12 -2 12 3
0 6 3 11 6 11 3 0 2 -9 -1 -20z m-515 -5 c0 -8 -4 -15 -8 -15 -5 0 -9 7 -9 15
0 8 4 15 9 15 4 0 8 -7 8 -15z m395 5 c-3 -5 2 -10 12 -10 10 -1 29 -7 43 -15
l25 -14 -32 4 c-53 6 -72 15 -66 31 3 7 9 14 15 14 5 0 6 -4 3 -10z m-108 -36
c-3 -3 -12 -4 -19 -1 -8 3 -5 6 6 6 11 1 17 -2 13 -5z m18 -24 c3 -5 -1 -10
-10 -10 -9 0 -13 5 -10 10 3 6 8 10 10 10 2 0 7 -4 10 -10z"/>
<path d="M2631 1697 c-13 -21 -12 -21 5 -5 10 10 16 20 13 22 -3 3 -11 -5 -18
-17z"/>
</g>
</svg>
